<svg width="40" height="41" viewBox="0 0 40 41" fill="none" xmlns="http://www.w3.org/2000/svg">
<path d="M40.001 20C40.001 8.9543 31.0467 -1.35705e-06 20.001 -8.74228e-07C8.95528 -3.91405e-07 0.000975205 8.95431 0.000975688 20C0.000976171 31.0457 8.95528 40 20.001 40C31.0467 40 40.001 31.0457 40.001 20Z" fill="white"/>
<path d="M20.001 40.0015C31.0467 40.0015 40.001 31.0472 40.001 20.0015C40.001 8.95577 31.0467 0.00146484 20.001 0.00146484C8.95528 0.00146484 0.000976562 8.95577 0.000976562 20.0015C0.000976562 31.0472 8.95528 40.0015 20.001 40.0015Z" fill="url(#paint0_radial_1032_444660)"/>
<path d="M40.001 20C40.001 8.9543 31.0467 -1.35705e-06 20.001 -8.74228e-07C8.95528 -3.91405e-07 0.000975205 8.95431 0.000975688 20C0.000976171 31.0457 8.95528 40 20.001 40C31.0467 40 40.001 31.0457 40.001 20Z" fill="url(#paint1_linear_1032_444660)" fill-opacity="0.3"/>
<path d="M40.001 20C40.001 8.9543 31.0467 -1.35705e-06 20.001 -8.74228e-07C8.95528 -3.91405e-07 0.000975205 8.95431 0.000975688 20C0.000976171 31.0457 8.95528 40 20.001 40C31.0467 40 40.001 31.0457 40.001 20Z" fill="url(#paint2_radial_1032_444660)" fill-opacity="0.3"/>
<g clip-path="url(#clip0_1032_444660)">
<path d="M20 9C13.9344 9 9 13.9344 9 20C9 26.0656 13.9344 31 20 31C26.0656 31 31 26.0656 31 20C31 13.9344 26.0656 9 20 9ZM26.4167 20.9167H19.0833V13.5833H20.9167V19.0833H26.4167V20.9167Z" fill="#001947"/>
</g>
<g filter="url(#filter0_b_1032_444660)">
<path fill-rule="evenodd" clip-rule="evenodd" d="M3.5 30C16.4787 30 27 19.4787 27 6.50003C27 4.6177 26.7787 2.78706 26.3607 1.03271C34.288 3.69003 40 11.178 40 20C40 31.0457 31.0457 40 20 40C12.5912 40 6.1233 35.9715 2.66727 29.9856C2.94366 29.9952 3.22126 30 3.5 30Z" fill="url(#paint3_linear_1032_444660)"/>
</g>
<defs>
<filter id="filter0_b_1032_444660" x="1.33394" y="-0.300619" width="39.9994" height="41.634" filterUnits="userSpaceOnUse" color-interpolation-filters="sRGB">
<feFlood flood-opacity="0" result="BackgroundImageFix"/>
<feGaussianBlur in="BackgroundImageFix" stdDeviation="0.666667"/>
<feComposite in2="SourceAlpha" operator="in" result="effect1_backgroundBlur_1032_444660"/>
<feBlend mode="normal" in="SourceGraphic" in2="effect1_backgroundBlur_1032_444660" result="shape"/>
</filter>
<radialGradient id="paint0_radial_1032_444660" cx="0" cy="0" r="1" gradientUnits="userSpaceOnUse" gradientTransform="translate(39.9271 9.93628e-05) rotate(135) scale(34.9872)">
<stop stop-color="white"/>
<stop offset="1" stop-color="white" stop-opacity="0"/>
</radialGradient>
<linearGradient id="paint1_linear_1032_444660" x1="18.3343" y1="-3.33334" x2="0.000973962" y2="23.6667" gradientUnits="userSpaceOnUse">
<stop offset="0.270833" stop-color="#00F47F" stop-opacity="0.5"/>
<stop offset="1" stop-color="#00DFED" stop-opacity="0.2"/>
</linearGradient>
<radialGradient id="paint2_radial_1032_444660" cx="0" cy="0" r="1" gradientUnits="userSpaceOnUse" gradientTransform="translate(26 9.5) rotate(143.291) scale(47.3994 39.1256)">
<stop stop-color="white" stop-opacity="0"/>
<stop offset="0.610268" stop-color="#00BDE7"/>
</radialGradient>
<linearGradient id="paint3_linear_1032_444660" x1="21.3388" y1="40" x2="26.3302" y2="11.7965" gradientUnits="userSpaceOnUse">
<stop stop-color="#00F47F"/>
<stop offset="1" stop-color="#00DFED" stop-opacity="0.5"/>
</linearGradient>
<clipPath id="clip0_1032_444660">
<rect width="22" height="22" fill="white" transform="translate(9 9)"/>
</clipPath>
</defs>
</svg>
