<?xml version="1.0" encoding="UTF-8"?>
<svg xmlns="http://www.w3.org/2000/svg" id="Layer_1" data-name="Layer 1" viewBox="0 0 24 24" width="512" height="512"><path d="M12,17c-1.1,0-2,.9-2,2s.9,2,2,2,2-.9,2-2-.9-2-2-2Zm0,3c-.55,0-1-.45-1-1s.45-1,1-1,1,.45,1,1-.45,1-1,1Zm6.86-6.82c.18,.21,.15,.53-.06,.7-.09,.08-.21,.12-.32,.12-.14,0-.28-.06-.38-.18-.14-.17-.29-.33-.44-.48-.69-.69-1.48-1.24-2.36-1.64-.25-.11-.36-.41-.25-.66,.11-.25,.41-.36,.66-.25,.99,.45,1.88,1.07,2.66,1.84,.17,.17,.34,.35,.5,.54Zm-9.91-2.13c.11,.25,0,.55-.25,.66-.88,.4-1.67,.95-2.36,1.64-.16,.16-.3,.32-.44,.48-.1,.12-.24,.18-.38,.18-.11,0-.23-.04-.32-.12-.21-.18-.24-.49-.06-.7,.16-.19,.32-.36,.5-.54,.77-.77,1.67-1.39,2.66-1.84,.25-.11,.55,0,.66,.25Zm14.88-2.07c-.1,.09-.22,.13-.34,.13-.14,0-.27-.06-.37-.16-.17-.19-.34-.37-.52-.55-1.99-1.99-4.49-3.38-7.22-4.01-.27-.06-.44-.33-.38-.6s.33-.44,.6-.38c2.91,.67,5.58,2.15,7.7,4.28,.19,.19,.38,.39,.56,.59,.19,.21,.17,.52-.04,.71ZM8.99,3.79c.06,.27-.11,.54-.38,.6-2.73,.63-5.23,2.02-7.22,4.01-.18,.18-.35,.36-.52,.55-.1,.11-.23,.17-.37,.17-.12,0-.24-.04-.33-.13-.21-.19-.22-.5-.04-.71,.18-.2,.37-.39,.56-.59,2.12-2.12,4.79-3.6,7.7-4.28,.27-.06,.54,.11,.6,.38Zm2.51,10.71V3.5c0-.28,.22-.5,.5-.5s.5,.22,.5,.5V14.5c0,.28-.22,.5-.5,.5s-.5-.22-.5-.5Z"/></svg>
