<svg width="21" height="20" viewBox="0 0 21 20" fill="none" xmlns="http://www.w3.org/2000/svg">
<path d="M17.375 3.125H3.625C3.29348 3.125 2.97554 3.2567 2.74112 3.49112C2.5067 3.72554 2.375 4.04348 2.375 4.375V15.625C2.375 15.9565 2.5067 16.2745 2.74112 16.5089C2.97554 16.7433 3.29348 16.875 3.625 16.875H17.375C17.7065 16.875 18.0245 16.7433 18.2589 16.5089C18.4933 16.2745 18.625 15.9565 18.625 15.625V4.375C18.625 4.04348 18.4933 3.72554 18.2589 3.49112C18.0245 3.2567 17.7065 3.125 17.375 3.125ZM17.375 15.625H3.625V4.375H17.375V15.625ZM14.25 6.875C14.25 7.86956 13.8549 8.82339 13.1517 9.52665C12.4484 10.2299 11.4946 10.625 10.5 10.625C9.50544 10.625 8.55161 10.2299 7.84835 9.52665C7.14509 8.82339 6.75 7.86956 6.75 6.875C6.75 6.70924 6.81585 6.55027 6.93306 6.43306C7.05027 6.31585 7.20924 6.25 7.375 6.25C7.54076 6.25 7.69973 6.31585 7.81694 6.43306C7.93415 6.55027 8 6.70924 8 6.875C8 7.53804 8.26339 8.17393 8.73223 8.64277C9.20107 9.11161 9.83696 9.375 10.5 9.375C11.163 9.375 11.7989 9.11161 12.2678 8.64277C12.7366 8.17393 13 7.53804 13 6.875C13 6.70924 13.0658 6.55027 13.1831 6.43306C13.3003 6.31585 13.4592 6.25 13.625 6.25C13.7908 6.25 13.9497 6.31585 14.0669 6.43306C14.1842 6.55027 14.25 6.70924 14.25 6.875Z" fill="currentColor"/>
</svg>
