<?xml version="1.0" standalone="no"?>
<!DOCTYPE svg PUBLIC "-//W3C//DTD SVG 20010904//EN"
 "http://www.w3.org/TR/2001/REC-SVG-20010904/DTD/svg10.dtd">
<svg version="1.0" xmlns="http://www.w3.org/2000/svg"
 width="260.000000pt" height="260.000000pt" viewBox="0 0 260.000000 260.000000"
 preserveAspectRatio="xMidYMid meet">
<metadata>
Created by potrace 1.14, written by Peter Selinger 2001-2017
</metadata>
<g transform="translate(0.000000,260.000000) scale(0.100000,-0.100000)"
fill="#000000" stroke="none">
<path d="M1075 2585 c-38 -7 -81 -15 -95 -18 -109 -21 -304 -106 -415 -180
-291 -194 -470 -464 -551 -832 -3 -16 -8 -107 -9 -201 -3 -186 9 -271 61 -429
114 -351 433 -671 784 -788 156 -51 224 -62 405 -62 189 0 230 5 360 41 102
28 96 26 225 88 231 111 453 336 572 577 41 84 83 204 92 264 4 21 8 41 11 45
17 27 25 306 12 410 -27 212 -104 407 -231 580 -46 63 -179 199 -246 251 -146
115 -368 216 -535 245 -22 4 -49 9 -60 11 -49 12 -315 10 -380 -2z m-211 -689
c114 -27 206 -87 264 -173 30 -43 28 -54 -5 -43 -143 46 -330 99 -483 137
-193 49 -196 51 -95 69 17 3 46 8 65 13 63 14 186 12 254 -3z m1155 -9 c55
-12 88 -23 80 -27 -8 -4 -50 -16 -94 -25 -106 -23 -411 -107 -504 -139 -41
-14 -77 -24 -79 -22 -8 9 31 67 72 110 115 116 296 152 525 103z m-1330 -474
c31 -20 80 -51 109 -69 l52 -32 -41 -41 c-70 -68 -199 -119 -299 -117 l-55 1
0 55 c0 96 41 202 91 232 39 23 78 15 143 -29z m1389 5 c7 -7 12 -44 12 -97 0
-82 -1 -85 -39 -135 -21 -28 -47 -61 -57 -73 -24 -27 -31 -36 -128 -158 -44
-55 -82 -102 -86 -105 -3 -3 -18 -21 -34 -40 -48 -58 -138 -160 -191 -215
l-50 -51 -125 -4 c-317 -10 -458 1 -580 44 -60 21 -156 73 -148 81 1 2 23 -1
48 -6 25 -4 100 -11 166 -15 145 -8 236 9 342 61 75 38 171 129 315 298 23 28
47 55 52 61 6 6 28 34 50 61 22 28 42 52 45 55 3 3 27 33 54 67 45 58 74 82
157 132 79 46 171 65 197 39z m-1117 -165 c30 -14 90 -39 134 -54 l79 -27 -76
-76 c-85 -86 -147 -119 -256 -140 -71 -13 -240 -13 -322 2 l-45 7 -9 58 c-5
31 -7 59 -5 61 2 2 38 6 79 9 120 9 226 55 309 134 31 29 56 52 57 53 0 0 25
-12 55 -27z m638 -60 c-187 -238 -348 -404 -426 -440 -128 -59 -315 -65 -548
-19 -58 11 -61 14 -87 61 -15 28 -32 63 -38 79 l-10 28 37 -7 c20 -3 89 -8
153 -11 96 -3 132 0 196 17 125 33 176 63 279 167 52 52 98 91 104 88 18 -12
205 -9 251 4 25 7 56 20 70 31 31 23 36 24 19 2z m472 -266 c-39 -153 -114
-263 -218 -315 -45 -23 -145 -51 -212 -59 l-46 -5 35 37 c19 21 42 45 50 54 8
9 35 41 60 70 25 30 52 62 60 70 8 9 33 39 55 66 22 28 42 52 45 55 3 3 23 28
45 55 22 28 44 55 50 61 5 7 28 35 50 63 l40 52 3 -61 c2 -38 -5 -93 -17 -143z"/>
</g>
</svg>
